<mxfile host="app.diagrams.net" modified="2020-11-14T15:51:04.666Z" agent="5.0 (Windows NT 10.0; Win64; x64) AppleWebKit/537.36 (KHTML, like Gecko) Chrome/86.0.4240.198 Safari/537.36" etag="JtBVI7RylmYo0P7IHfDB" version="13.9.8" type="github">
  <diagram id="LTsQDihcndIUgzf3FQ4U" name="Page-1">
    <mxGraphModel dx="569" dy="305" grid="1" gridSize="10" guides="1" tooltips="1" connect="1" arrows="1" fold="1" page="1" pageScale="1" pageWidth="850" pageHeight="1100" math="0" shadow="0">
      <root>
        <mxCell id="0" />
        <mxCell id="1" parent="0" />
        <mxCell id="Gjzf6rsyO91jv-u4FjQX-1" value="" style="endArrow=none;html=1;exitX=0.5;exitY=0;exitDx=0;exitDy=0;" edge="1" parent="1" source="Gjzf6rsyO91jv-u4FjQX-3" target="Gjzf6rsyO91jv-u4FjQX-2">
          <mxGeometry width="50" height="50" relative="1" as="geometry">
            <mxPoint x="400" y="420" as="sourcePoint" />
            <mxPoint x="450" y="370" as="targetPoint" />
          </mxGeometry>
        </mxCell>
        <mxCell id="Gjzf6rsyO91jv-u4FjQX-2" value="" style="ellipse;whiteSpace=wrap;html=1;aspect=fixed;fontColor=#333333;fillColor=#000000;" vertex="1" parent="1">
          <mxGeometry x="400" y="278" width="10" height="10" as="geometry" />
        </mxCell>
        <mxCell id="Gjzf6rsyO91jv-u4FjQX-3" value="" style="ellipse;whiteSpace=wrap;html=1;aspect=fixed;fillColor=#f5f5f5;fontColor=#333333;" vertex="1" parent="1">
          <mxGeometry x="400" y="320" width="10" height="10" as="geometry" />
        </mxCell>
        <mxCell id="Gjzf6rsyO91jv-u4FjQX-4" value="" style="ellipse;whiteSpace=wrap;html=1;aspect=fixed;fontColor=#333333;fillColor=#000000;" vertex="1" parent="1">
          <mxGeometry x="370" y="350" width="10" height="10" as="geometry" />
        </mxCell>
        <mxCell id="Gjzf6rsyO91jv-u4FjQX-5" value="" style="endArrow=none;html=1;exitX=1;exitY=0;exitDx=0;exitDy=0;entryX=0;entryY=1;entryDx=0;entryDy=0;" edge="1" parent="1" source="Gjzf6rsyO91jv-u4FjQX-4" target="Gjzf6rsyO91jv-u4FjQX-3">
          <mxGeometry width="50" height="50" relative="1" as="geometry">
            <mxPoint x="390" y="360" as="sourcePoint" />
            <mxPoint x="390" y="330" as="targetPoint" />
          </mxGeometry>
        </mxCell>
        <mxCell id="Gjzf6rsyO91jv-u4FjQX-6" value="" style="ellipse;whiteSpace=wrap;html=1;aspect=fixed;fontColor=#333333;fillColor=#000000;" vertex="1" parent="1">
          <mxGeometry x="430" y="350" width="10" height="10" as="geometry" />
        </mxCell>
        <mxCell id="Gjzf6rsyO91jv-u4FjQX-7" value="" style="endArrow=none;html=1;exitX=0;exitY=0;exitDx=0;exitDy=0;entryX=1;entryY=1;entryDx=0;entryDy=0;" edge="1" parent="1" source="Gjzf6rsyO91jv-u4FjQX-6" target="Gjzf6rsyO91jv-u4FjQX-3">
          <mxGeometry width="50" height="50" relative="1" as="geometry">
            <mxPoint x="388.53553390593277" y="361.46446609406723" as="sourcePoint" />
            <mxPoint x="411.46446609406723" y="338.53553390593277" as="targetPoint" />
          </mxGeometry>
        </mxCell>
      </root>
    </mxGraphModel>
  </diagram>
</mxfile>
